<svg width="46" height="36" viewBox="0 0 46 36" fill="none" xmlns="http://www.w3.org/2000/svg">
<path d="M20.394 35.0407C19.7779 35.6549 18.9423 36 18.071 36C17.1997 36 16.3641 35.6549 15.748 35.0407L0.962029 20.2967C0.346043 19.6822 0 18.849 0 17.9802C0 17.1114 0.346043 16.2782 0.962029 15.6638L15.748 0.919739C16.3677 0.322906 17.1977 -0.00733948 18.0592 0.000125885C18.9207 0.00758743 19.7448 0.352169 20.354 0.959648C20.9632 1.56713 21.3088 2.3889 21.3163 3.24798C21.3238 4.10706 20.9926 4.93469 20.394 5.55264L11.4995 14.7038L42.7142 14.7038C43.5857 14.7038 44.4214 15.049 45.0376 15.6634C45.6538 16.2779 46 17.1112 46 17.9802C46 18.8492 45.6538 19.6826 45.0376 20.297C44.4214 20.9115 43.5857 21.2567 42.7142 21.2567L11.4995 21.2567L20.394 30.4078C21.01 31.0222 21.3561 31.8555 21.3561 32.7242C21.3561 33.593 21.01 34.4263 20.394 35.0407Z" fill="white"/>
</svg>
